<?xml version="1.0" encoding="UTF-8"?>
<!DOCTYPE svg PUBLIC "-//W3C//DTD SVG 1.1//EN" "http://www.w3.org/Graphics/SVG/1.1/DTD/svg11.dtd">
<!-- Creator: CorelDRAW -->
<svg xmlns="http://www.w3.org/2000/svg" xml:space="preserve" width="176.389mm" height="176.389mm" version="1.1" style="shape-rendering:geometricPrecision; text-rendering:geometricPrecision; image-rendering:optimizeQuality; fill-rule:evenodd; clip-rule:evenodd"
viewBox="0 0 4076.35 4076.35"
 xmlns:xlink="http://www.w3.org/1999/xlink"
 xmlns:xodm="http://www.corel.com/coreldraw/odm/2003">
 <defs>
  <style type="text/css">
   <![CDATA[
    .fil0 {fill:#A78BFA}
   ]]>
  </style>
 </defs>
 <g id="Слой_x0020_1">
  <metadata id="CorelCorpID_0Corel-Layer"/>
  <path class="fil0" d="M-0 2038.18c0,-1125.65 912.52,-2038.18 2038.18,-2038.18 1125.64,0 2038.18,912.52 2038.18,2038.18 0,1125.64 -912.53,2038.18 -2038.18,2038.18 -1125.65,0 -2038.18,-912.53 -2038.18,-2038.18zm2793.75 -551.76c79.59,79.6 79.59,208.65 0,288.24l-750.62 750.62c-115.3,115.3 -302.24,115.3 -417.54,0l-342.98 -342.99c-79.59,-79.59 -79.59,-208.64 0,-288.24 79.6,-79.59 208.65,-79.59 288.24,0l263.51 263.51 671.15 -671.15c79.59,-79.6 208.65,-79.6 288.24,0z"/>
 </g>
</svg>
